<?xml version="1.0" encoding="utf-8"?>
<!-- Generator: Adobe Illustrator 22.1.0, SVG Export Plug-In . SVG Version: 6.00 Build 0)  -->
<svg version="1.1" id="圖層_1" xmlns="http://www.w3.org/2000/svg" xmlns:xlink="http://www.w3.org/1999/xlink" x="0px" y="0px"
	 viewBox="0 0 69 69" style="enable-background:new 0 0 69 69;" xml:space="preserve">
<style type="text/css">
	.st0{fill:#FFFFFF;}
</style>
<g id="勾選">
</g>
<g id="資訊">
	<path class="st0" d="M56.6,11.3C50.4,5.1,42.2,2,34,2s-16.4,3.1-22.6,9.4c-12.5,12.5-12.5,32.8,0,45.3C17.6,62.8,25.8,66,34,66
		s16.4-3.1,22.6-9.4C69.1,44.1,69.1,23.8,56.6,11.3z M53.1,53.1C48,58.2,41.2,61,34,61s-14-2.8-19.1-7.9
		c-10.5-10.5-10.5-27.7,0-38.2C20,9.8,26.8,7,34,7s14,2.8,19.1,7.9v0C58.2,20,61,26.8,61,34C61,41.2,58.2,48,53.1,53.1z"/>
	<path class="st0" d="M34,17c-2.6,0-4.7,2.1-4.7,4.7c0,2.6,2.1,4.7,4.7,4.7c2.6,0,4.7-2.1,4.7-4.7C38.7,19.1,36.6,17,34,17z"/>
	<rect x="29.7" y="29.9" class="st0" width="8.5" height="21.1"/>
</g>
</svg>
