<?xml version="1.0" encoding="utf-8"?>
<!-- Generator: Adobe Illustrator 22.1.0, SVG Export Plug-In . SVG Version: 6.00 Build 0)  -->
<svg version="1.1" id="圖層_1" xmlns="http://www.w3.org/2000/svg" xmlns:xlink="http://www.w3.org/1999/xlink" x="0px" y="0px"
	 viewBox="0 0 480.3 481" style="enable-background:new 0 0 480.3 481;" xml:space="preserve">
<style type="text/css">
	.st0{fill:#22AC38;}
	.st1{fill:#00913A;}
	.st2{fill:#009944;}
	.st3{fill:none;}
</style>
<g>
	<g>
		<path class="st1" d="M237.1,53.6c-6.9,6.6-15.2,10.5-23.2,11.4c-0.4-9.8,4-20.6,12.6-29c6.9-6.6,15.2-10.5,23.2-11.4
			C250.1,34.5,245.7,45.3,237.1,53.6z"/>
		<path class="st1" d="M176.7,53.1c-6.2,12.7-15.8,22.2-26.5,27.6c-5.5-13.4-4.9-30.7,2.9-46.6c6.2-12.7,15.8-22.2,26.5-27.6
			C185.1,19.9,184.5,37.2,176.7,53.1z"/>
		<path class="st1" d="M113.4,95.6c-1,9.5-4.9,17.8-10.4,23.7C96.4,112,92.8,100.9,94,89c1-9.5,4.9-17.8,10.4-23.7
			C111.1,72.6,114.7,83.7,113.4,95.6z"/>
		<path class="st1" d="M67.2,135.4c3.3,13.2,2.1,26.1-2.4,36.7c-12.3-6.5-22.5-19.5-26.7-36.1c-3.3-13.2-2.1-26.1,2.4-36.7
			C52.9,105.8,63.1,118.8,67.2,135.4z"/>
		<path class="st1" d="M45.7,207.3c5.3,7.9,7.7,16.8,7.2,24.8c-9.7-1.3-19.6-7.5-26.3-17.5c-5.3-7.9-7.7-16.8-7.2-24.8
			C29.1,191.1,39,197.3,45.7,207.3z"/>
		<path class="st1" d="M39.9,266.5c10.1,7.4,17,17.2,20,27.4c-12.6,2.7-27.5-0.4-40.2-9.7c-10.1-7.4-17-17.2-20-27.4
			C12.2,254.1,27.1,257.3,39.9,266.5z"/>
		<path class="st1" d="M65.6,336.3c9.2,2.6,16.7,7.9,21.5,14.4c-8.3,5.2-19.8,6.9-31.4,3.5c-9.2-2.6-16.7-7.9-21.5-14.4
			C42.5,334.6,54,333,65.6,336.3z"/>
		<path class="st1" d="M94.5,383.9c14.2-1,27.5,2.6,37.6,9.2c-9,11.6-24.4,19.8-42.3,21c-14.2,1-27.5-2.6-37.6-9.2
			C61.3,393.4,76.6,385.2,94.5,383.9z"/>
		<path class="st1" d="M163.7,422.4c8.7-3.9,17.9-4.6,25.7-2.8c-3,9.3-10.8,18-21.8,22.9c-8.7,3.9-17.9,4.6-25.7,2.8
			C145,436,152.8,427.3,163.7,422.4z"/>
		<path class="st1" d="M222.3,437.9c8.7-8.4,19.2-13.2,29.3-14.4c0.5,12.4-5,26-15.9,36.6c-8.7,8.4-19.2,13.2-29.3,14.4
			C205.8,462.1,211.3,448.5,222.3,437.9z"/>
		<path class="st1" d="M290.8,432.4c5.5-11.3,14.1-19.9,23.7-24.7c4.9,12,4.4,27.4-2.6,41.7c-5.5,11.3-14.1,19.9-23.7,24.7
			C283.3,462.1,283.8,446.7,290.8,432.4z"/>
		<path class="st1" d="M352.4,393.4c1-9.5,4.9-17.8,10.4-23.7c6.6,7.3,10.2,18.4,8.9,30.3c-1,9.5-4.9,17.8-10.4,23.7
			C354.8,416.4,351.1,405.3,352.4,393.4z"/>
		<path class="st1" d="M396.1,343.5c-2.3-9.3-1.5-18.4,1.7-25.8c8.7,4.6,15.9,13.8,18.8,25.4c2.3,9.3,1.5,18.4-1.7,25.8
			C406.2,364.3,399,355.2,396.1,343.5z"/>
		<path class="st1" d="M427.7,292.9c-8.3-12.2-11.9-26-11.2-38.4c15,2.1,30.3,11.6,40.7,27c8.3,12.2,11.9,26,11.2,38.4
			C453.4,317.9,438.1,308.3,427.7,292.9z"/>
		<path class="st1" d="M421.6,215.4c-7.7-5.6-13-13.1-15.3-20.9c9.6-2.1,21,0.3,30.7,7.4c7.7,5.6,13,13.1,15.3,20.9
			C442.7,224.9,431.3,222.5,421.6,215.4z"/>
		<path class="st1" d="M406.1,154.3c-11.4-3.3-20.8-9.9-26.8-17.9c10.3-6.5,24.7-8.5,39.1-4.4c11.4,3.3,20.8,9.9,26.8,17.9
			C434.8,156.4,420.4,158.5,406.1,154.3z"/>
		<path class="st1" d="M358.8,101c-9.5,0.7-18.4-1.7-25.1-6.2c6-7.7,16.3-13.2,28.3-14.1c9.5-0.7,18.4,1.7,25.1,6.2
			C381,94.6,370.7,100.1,358.8,101z"/>
		<path class="st1" d="M311.7,62.3c-12.4,5.5-25.5,6.6-36.7,4c4.3-13.3,15.4-25.7,31-32.6c12.4-5.5,25.5-6.6,36.7-4
			C338.4,43,327.3,55.3,311.7,62.3z"/>
	</g>
	<g>
		<g>
			<path class="st2" d="M370.8,353.8c-4.6,7.6-10.2,14.4-16.5,20.7c-6.3,6.3-13.2,11.9-20.6,16.8c-7.4,4.9-15.3,9.1-23.6,12.4
				c-8.2,3.3-16.8,5.8-25.5,7c8.1-3.6,15.9-7.2,23.6-11.3c7.6-4,15.1-8.4,22.2-13.1c7.2-4.7,14.1-9.8,20.8-15.3
				C357.9,365.6,364.3,359.8,370.8,353.8z"/>
		</g>
		<g>
			<path class="st2" d="M409.7,244.5c1.2,5.7,1.6,11.5,1.5,17.3c-0.1,5.8-0.8,11.6-1.9,17.2c-1.1,5.7-2.7,11.3-4.8,16.7
				c-2.1,5.4-4.7,10.6-8,15.4c1-5.7,2.3-11.2,3.5-16.7c1.2-5.5,2.4-11,3.5-16.5c1.1-5.5,2.1-11,3.1-16.5
				C407.6,255.8,408.5,250.2,409.7,244.5z"/>
		</g>
		<g>
			<path class="st2" d="M236.8,71.6c10.1-1.2,20.5-1,30.7,0.3c10.2,1.4,20.3,3.8,29.9,7.4c9.7,3.5,19,8.2,27.6,13.7
				c8.6,5.6,16.7,12.1,23.6,19.6c-8.5-5.6-17.1-10.9-26-15.5c-8.9-4.7-18-8.7-27.3-12.2c-9.3-3.4-18.9-6.2-28.7-8.4
				C256.9,74.4,246.9,72.8,236.8,71.6z"/>
		</g>
		<g>
			<path class="st2" d="M63.9,244.5c-1.2-16.3,0.4-32.8,4.6-48.8c2-8,4.8-15.8,8.1-23.4c3.3-7.6,7.2-14.9,11.6-21.9
				c8.8-14,19.9-26.6,32.5-37.2c12.6-10.6,26.8-19.2,42.1-25.1c-14.1,8.1-27.2,17.6-38.9,28.6c-11.7,11-21.9,23.4-30.5,36.9
				c-4.3,6.7-8.1,13.8-11.5,21c-3.4,7.2-6.3,14.7-8.7,22.3C68,212.3,65.1,228.3,63.9,244.5z"/>
		</g>
		<g>
			<path class="st2" d="M183.9,409.2c-11.1-2.3-21.8-6.2-32-11.3c-10.2-5.1-19.7-11.5-28.5-18.8c-8.7-7.4-16.6-15.7-23.4-24.9
				c-6.8-9.2-12.5-19.1-16.6-29.6c6.3,9.4,13,18.3,20.2,26.6c7.3,8.4,15.2,16.1,23.6,23.2c8.4,7.1,17.4,13.6,26.9,19.3
				C163.7,399.5,173.6,404.6,183.9,409.2z"/>
		</g>
	</g>
</g>
</svg>
