<?xml version="1.0" encoding="utf-8"?>
<!-- Generator: Adobe Illustrator 22.1.0, SVG Export Plug-In . SVG Version: 6.00 Build 0)  -->
<svg version="1.1" id="圖層_1" xmlns="http://www.w3.org/2000/svg" xmlns:xlink="http://www.w3.org/1999/xlink" x="0px" y="0px"
	 viewBox="0 0 480.3 481" style="enable-background:new 0 0 480.3 481;" xml:space="preserve">
<style type="text/css">
	.st0{fill:#22AC38;}
	.st1{fill:#00913A;}
	.st2{fill:#009944;}
	.st3{fill:none;}
</style>
<g>
	<path class="st0" d="M251.6,384.6c7.2,7,11.6,15.5,12.9,23.7c-8.2-0.9-16.9-5-24.1-12c-7.2-7-11.6-15.5-12.8-23.7
		C235.7,373.5,244.4,377.6,251.6,384.6z"/>
	<path class="st0" d="M293.5,371.4c6.7,3,11.9,7.7,14.7,13c-5.9,1.4-12.9,0.8-19.6-2.2c-6.7-3-11.9-7.7-14.7-13
		C279.8,367.8,286.8,368.4,293.5,371.4z"/>
	<path class="st0" d="M335.6,345.4c7.3,0.5,13.8,3.2,18.3,7.2c-5,3.3-11.8,5.1-19.1,4.6c-7.3-0.5-13.8-3.2-18.3-7.2
		C321.5,346.7,328.3,344.9,335.6,345.4z"/>
	<path class="st0" d="M373.3,301.9c10.1-2.9,20.1-2.4,28.1,0.7c-5.1,6.9-13.3,12.7-23.4,15.6c-10.1,2.9-20.1,2.4-28.1-0.7
		C355,310.6,363.3,304.8,373.3,301.9z"/>
	<path class="st0" d="M381.9,259.7c5.9-4.3,12.6-6.4,18.7-6.2c-1.7,5.8-5.7,11.5-11.7,15.8c-5.9,4.3-12.6,6.4-18.7,6.2
		C371.9,269.7,375.9,264,381.9,259.7z"/>
	<path class="st0" d="M381.7,203.6c5.5-8.1,12.9-13.7,20.5-16.3c0.5,8-1.9,17-7.4,25.1c-5.5,8.1-12.9,13.7-20.5,16.3
		C373.8,220.7,376.2,211.7,381.7,203.6z"/>
	<path class="st0" d="M362.2,164.3c1.8-7.1,5.6-13,10.3-16.8c2.4,5.5,3,12.5,1.2,19.6c-1.8,7.1-5.6,13-10.3,16.8
		C361,178.4,360.4,171.4,362.2,164.3z"/>
	<path class="st0" d="M329.3,127.3c-0.8-7.3,0.8-14.1,3.9-19.3c4.2,4.4,7.1,10.7,7.9,18c0.8,7.3-0.8,14.1-3.9,19.3
		C333,141,330.1,134.6,329.3,127.3z"/>
	<path class="st0" d="M281.1,99c-4.3-8.9-5.5-18.2-3.9-26.2c7.3,3.6,13.9,10.3,18.3,19.2c4.3,8.9,5.5,18.2,3.9,26.2
		C292.1,114.5,285.4,107.8,281.1,99z"/>
	<path class="st0" d="M236.9,96.7c-5.3-5.1-8.5-11.3-9.4-17.3c6,0.7,12.3,3.6,17.6,8.7c5.3,5.1,8.5,11.3,9.4,17.3
		C248.5,104.8,242.1,101.8,236.9,96.7z"/>
	<path class="st0" d="M188.4,106.7c-6.7-3-11.9-7.7-14.7-13c5.9-1.4,12.9-0.8,19.6,2.2c6.7,3,11.9,7.7,14.7,13
		C202.1,110.3,195.1,109.7,188.4,106.7z"/>
	<path class="st0" d="M142.7,133.5c-8.7-0.6-16.4-3.8-21.8-8.6c6-4,14-6.1,22.8-5.5c8.7,0.6,16.4,3.8,21.8,8.6
		C159.5,132,151.4,134.1,142.7,133.5z"/>
	<path class="st0" d="M115.7,171.4c-7.1,2-14.1,1.7-19.7-0.5c3.6-4.9,9.3-8.9,16.4-10.9c7.1-2,14.1-1.7,19.7,0.5
		C128.5,165.4,122.7,169.4,115.7,171.4z"/>
	<path class="st0" d="M98.8,220.1c-6.6,4.8-14,7.1-20.7,6.9c1.9-6.4,6.4-12.8,13-17.6c6.6-4.8,14-7.1,20.7-6.9
		C109.9,208.9,105.4,215.3,98.8,220.1z"/>
	<path class="st0" d="M101.5,267.8c-4.1,6.1-9.7,10.3-15.4,12.3c-0.4-6,1.4-12.8,5.5-18.9c4.1-6.1,9.7-10.3,15.4-12.2
		C107.4,254.9,105.6,261.7,101.5,267.8z"/>
	<path class="st0" d="M120.3,321.6c-2.5,10-7.8,18.2-14.4,23.5c-3.4-7.7-4.2-17.5-1.7-27.5c2.5-10,7.8-18.2,14.4-23.4
		C121.9,301.8,122.7,311.6,120.3,321.6z"/>
	<path class="st0" d="M152.6,350.7c0.8,7.3-0.8,14.1-3.9,19.3c-4.2-4.4-7.1-10.7-7.9-18c-0.8-7.3,0.8-14.1,3.9-19.3
		C148.9,337,151.9,343.4,152.6,350.7z"/>
	<path class="st0" d="M198.3,375.3c3.6,7.3,4.5,14.9,3.2,21.4c-5.9-3-11.4-8.4-15-15.7c-3.6-7.3-4.5-14.9-3.2-21.4
		C189.3,362.5,194.7,368,198.3,375.3z"/>
</g>
</svg>
